<svg xmlns="http://www.w3.org/2000/svg" version="1.1" viewBox="-5.0 -10.0 110.0 135.0">
 <path d="m63.32 4.9688c0.082032-0.48047 0.77734-0.48047 0.85938 0 0.63281 3.6289 3.4727 6.4688 7.1016 7.1016 0.48047 0.082032 0.48047 0.77734 0 0.85938-3.6289 0.63281-6.4688 3.4727-7.1016 7.1016-0.082032 0.48047-0.77734 0.48047-0.85938 0-0.63281-3.6289-3.4727-6.4688-7.1016-7.1016-0.48047-0.082032-0.48047-0.77734 0-0.85938 3.6289-0.63281 6.4688-3.4727 7.1016-7.1016zm19.934 9.3516c-0.14844-0.84375-1.3594-0.84375-1.5078 0-1.1055 6.3477-6.0781 11.32-12.426 12.426-0.84375 0.14844-0.84375 1.3594 0 1.5078 6.3477 1.1055 11.32 6.0781 12.426 12.426 0.14844 0.84375 1.3594 0.84375 1.5078 0 1.1055-6.3477 6.0781-11.32 12.426-12.426 0.84375-0.14844 0.84375-1.3594 0-1.5078-6.3477-1.1055-11.32-6.0781-12.426-12.426zm-32.004 11.305c1.0352 0 1.875 0.83984 1.875 1.875s-0.83984 1.875-1.875 1.875h-32.5c-3.1055 0-5.625 2.5195-5.625 5.625v40c0 3.1055 2.5195 5.625 5.625 5.625h65c3.1055 0 5.625-2.5195 5.625-5.625v-20c0-1.0352 0.83984-1.875 1.875-1.875s1.875 0.83984 1.875 1.875v20c0 5.1758-4.1992 9.375-9.375 9.375h-65c-5.1758 0-9.375-4.1992-9.375-9.375v-40c0-5.1758 4.1992-9.375 9.375-9.375zm-13.676 20.699c0.73438-0.73047 0.73438-1.918 0-2.6484-0.73047-0.73438-1.918-0.73438-2.6484 0l-9.1172 9.1133c-1.2227 1.2227-1.2227 3.1992 0 4.4219l9.1172 9.1133c0.73047 0.73438 1.918 0.73438 2.6484 0 0.73438-0.73047 0.73438-1.918 0-2.6484l-8.6719-8.6758zm27.352 20c-0.73438-0.73047-0.73438-1.918 0-2.6484l8.6719-8.6758-8.6719-8.6758c-0.73438-0.73047-0.73438-1.918 0-2.6484 0.73047-0.73438 1.918-0.73438 2.6484 0l9.1172 9.1133c1.2227 1.2227 1.2227 3.1992 0 4.4219l-9.1172 9.1133c-0.73047 0.73438-1.918 0.73438-2.6484 0zm-21.516-2.3164c-0.55078 0.875-0.28125 2.0352 0.59766 2.582 0.875 0.55078 2.0352 0.28125 2.582-0.59766l12.5-20c0.55078-0.875 0.28125-2.0352-0.59766-2.582-0.875-0.55078-2.0352-0.28125-2.582 0.59766z" fill-rule="evenodd"/>
<text x="0.0" y="117.5" font-size="5.0" font-weight="bold" font-family="Arbeit Regular, Helvetica, Arial-Unicode, Arial, Sans-serif" fill="#000000">Created by Palash Jain</text><text x="0.0" y="122.5" font-size="5.0" font-weight="bold" font-family="Arbeit Regular, Helvetica, Arial-Unicode, Arial, Sans-serif" fill="#000000">from Noun Project</text></svg>